<svg xmlns="http://www.w3.org/2000/svg" width="60" height="59" viewBox="0 0 60 59">
  <defs>
    <style>
      .cls-1 {
        fill: #212121;
        fill-rule: evenodd;
      }
    </style>
  </defs>
  <path id="Icon" class="cls-1" d="M531.177,5076.67a1.165,1.165,0,1,1-1.179,1.16A1.17,1.17,0,0,1,531.177,5076.67Zm30.111-29.57a1.16,1.16,0,1,1-1.176,1.16A1.169,1.169,0,0,1,561.288,5047.1Zm15.407-13.59a5.049,5.049,0,0,0-7.082,0,4.916,4.916,0,0,0,0,7,5.049,5.049,0,0,0,7.082,0A4.914,4.914,0,0,0,576.7,5033.51Zm-1.664,5.36a2.685,2.685,0,0,1-3.754,0,2.617,2.617,0,0,1,0-3.72,2.673,2.673,0,0,1,3.754,0A2.617,2.617,0,0,1,575.031,5038.87ZM544.7,5067.52a1.183,1.183,0,0,0-1.578.52l-1.4,2.78a3.909,3.909,0,0,1-3.2,2.12l-1.63.11a0.7,0.7,0,0,1-.54-0.2,0.706,0.706,0,0,1-.2-0.54l0.112-1.61a3.827,3.827,0,0,1,2.135-3.16l2.814-1.39a1.16,1.16,0,0,0,.529-1.56,1.175,1.175,0,0,0-1.578-.52l-2.814,1.38a6.178,6.178,0,0,0-3.434,5.09l-0.111,1.61a2.986,2.986,0,0,0,.886,2.34,3.062,3.062,0,0,0,2.156.89c0.07,0,.139-0.01.209-0.01l1.63-.11a6.246,6.246,0,0,0,5.144-3.4l1.4-2.78A1.154,1.154,0,0,0,544.7,5067.52Zm44.491-46.74a2.732,2.732,0,0,0-2.085-.77l-1.1.06a35.654,35.654,0,0,0-25.221,12.87l-2.578,3.14-6.748-.19a0.048,0.048,0,0,0-.035-0.01,20.032,20.032,0,0,0-14.167,5.81l-6.912,6.84a1.151,1.151,0,0,0-.266,1.24,1.18,1.18,0,0,0,1.038.74l14.63,0.74-0.6.73a1.156,1.156,0,0,0-.12,1.29q0.344,0.63.72,1.23l-3.469,4.07a1.158,1.158,0,0,0-.164,1.25,15.125,15.125,0,0,0,2.99,4.23,15.523,15.523,0,0,0,4.365,3.05,1.263,1.263,0,0,0,.5.11,1.2,1.2,0,0,0,.742-0.26c0.747-.6,1.609-1.31,2.442-2,0.594-.49,1.2-0.99,1.77-1.46,0.339,0.21.682,0.4,1.03,0.59a1.246,1.246,0,0,0,.562.14,1.191,1.191,0,0,0,.722-0.24l0.8-.62,0.755,14.53a1.175,1.175,0,0,0,.752,1.03,1.242,1.242,0,0,0,.422.08,1.194,1.194,0,0,0,.833-0.34l6.911-6.84a19.574,19.574,0,0,0,5.868-14.01v-6.38l2.727-2.09a34.856,34.856,0,0,0,13.654-25.95l0.028-.56A2.661,2.661,0,0,0,589.186,5020.78Zm-55.306,27.54,5.04-4.99a17.728,17.728,0,0,1,12.487-5.12l4.932,0.15-8.755,10.66Zm17.772,14.84c-0.615.51-1.244,1.03-1.829,1.5a12.843,12.843,0,0,1-3.045-2.25,12.634,12.634,0,0,1-2.2-2.93l2.54-2.98a26.587,26.587,0,0,0,2.517,2.89h0a26.39,26.39,0,0,0,3.239,2.76C552.476,5062.48,552.061,5062.82,551.652,5063.16Zm19.582-5.35a17.264,17.264,0,0,1-5.179,12.36l-5.041,4.99-0.7-13.54,10.923-8.38v4.57h0Zm16.383-34.53a32.523,32.523,0,0,1-12.746,24.22l-18.453,14.16a24.288,24.288,0,0,1-4.261-3.11l6.221-6.15a1.161,1.161,0,0,0,0-1.65,1.194,1.194,0,0,0-1.664,0l-6.216,6.15a24.505,24.505,0,0,1-3.016-4.07l15.13-18.42a33.235,33.235,0,0,1,23.543-12.01l1.1-.07a0.362,0.362,0,0,1,.394.38Z" transform="translate(-530 -5020)"/>
</svg>
