<svg xmlns="http://www.w3.org/2000/svg" width="70" height="47" viewBox="0 0 70 47">
  <defs>
    <style>
      .cls-1 {
        fill: #8bc34a;
        fill-rule: evenodd;
      }
    </style>
  </defs>
  <path id="Icon" class="cls-1" d="M1044.98,4023.37c0-.03.01-0.06,0.01-0.09a1.133,1.133,0,0,0-.01-0.26v-0.07a1.155,1.155,0,0,0-.12-0.34c-0.01-.02-0.02-0.03-0.03-0.05v-0.01l-0.01-.01c-0.01-.01-0.01-0.03-0.02-0.04a1.326,1.326,0,0,0-.26-0.27,0.251,0.251,0,0,1-.07-0.04,1.465,1.465,0,0,0-.28-0.14,0.507,0.507,0,0,0-.13-0.02,1.09,1.09,0,0,0-.26-0.03c-0.04,0-.09.01-0.13,0.01s-0.06,0-.09.01l-67.668,14.1a1.167,1.167,0,0,0-.919.98,1.187,1.187,0,0,0,.61,1.21l19.388,10.31,3.4,19.02a0.417,0.417,0,0,0,0,.05,1.091,1.091,0,0,0,0,.28,0.844,0.844,0,0,0,.023.13,1.224,1.224,0,0,0,.128.32c0.012,0.02.012,0.04,0.025,0.06a0.085,0.085,0,0,0,.014.01c0.015,0.02.036,0.04,0.053,0.06a1.076,1.076,0,0,0,.177.19c0.011,0.01.018,0.02,0.03,0.03a0.147,0.147,0,0,1,.054.03,1.71,1.71,0,0,0,.223.11c0.031,0.01.061,0.03,0.093,0.04a1.183,1.183,0,0,0,.323.05h0.077a1.159,1.159,0,0,0,.829-0.37l12.92-8.68,13.52,8.86a1.191,1.191,0,0,0,.63.19,1.148,1.148,0,0,0,.37-0.06,1.194,1.194,0,0,0,.73-0.71l16.31-44.65a0.564,0.564,0,0,0,.04-0.12,0.109,0.109,0,0,0,.01-0.05A0.227,0.227,0,0,1,1044.98,4023.37Zm-13.5,7.5-27.97,20.73a0.681,0.681,0,0,0-.12.12,0.176,0.176,0,0,0-.05.04c-0.02.02-.04,0.05-0.07,0.08s-0.03.06-.05,0.09a1.505,1.505,0,0,0-.11.22,0.076,0.076,0,0,1-.02.04c0,0.01,0,.01-0.01.01l-3.2,10.51-2.54-14.21Zm-29.79,34.1,3.17-10.58,4.95,3.24,1.42,0.93-4.81,3.23Zm33.96-38.9-39.6,20.45-16.484-8.76Zm-8.72,39.97-17.96-11.77-2.72-1.78,35.15-26.06Z" transform="translate(-975 -4022)"/>
</svg>
