<svg id="Groupe_1" data-name="Groupe 1" xmlns="http://www.w3.org/2000/svg" xmlns:xlink="http://www.w3.org/1999/xlink" width="132" height="126" viewBox="0 0 132 126">
  <defs>
    <style>
      .cls-1 {
        fill: #fff;
        filter: url(#filter);
      }

      .cls-1, .cls-2 {
        fill-rule: evenodd;
      }

      .cls-2 {
        fill: #fc5c7d;
      }
    </style>
    <filter id="filter" x="446" y="1267" width="132" height="126" filterUnits="userSpaceOnUse">
      <feOffset result="offset" dx="1.628" dy="4.728" in="SourceAlpha"/>
      <feGaussianBlur result="blur" stdDeviation="5.196"/>
      <feFlood result="flood" flood-opacity="0.3"/>
      <feComposite result="composite" operator="in" in2="blur"/>
      <feBlend result="blend" in="SourceGraphic"/>
    </filter>
  </defs>
  <path id="Icon_Bg" class="cls-1" d="M483.759,1351.15q-5.093-9.105-10.5-18.02t-0.08-17.89q5.325-8.97,10.337-18.12t15.429-9.01q10.418,0.135,20.834-.1t15.508,8.88q5.094,9.1,10.5,18.02t0.079,17.89q-5.325,8.97-10.336,18.12t-15.43,9.01q-10.418-.135-20.833.1T483.759,1351.15Z" transform="translate(-446 -1267)"/>
  <path id="Icon" class="cls-2" d="M509.525,1311.51a11.651,11.651,0,0,0-4.081,22.53v6.24a0.683,0.683,0,0,0,.68.68h0.68v1.37a0.685,0.685,0,0,0,.68.69h4.081a0.685,0.685,0,0,0,.68-0.69v-1.37h0.68a0.683,0.683,0,0,0,.68-0.68v-6.24A11.651,11.651,0,0,0,509.525,1311.51Zm2.04,28.08a0.685,0.685,0,0,0-.68.69v1.37h-2.72v-1.37a0.686,0.686,0,0,0-.681-0.69H506.8v-3.42h5.441v3.42h-0.68Zm1.148-6.68a0.677,0.677,0,0,0-.468.65v1.24H506.8v-1.24a0.677,0.677,0,0,0-.467-0.65A10.2,10.2,0,1,1,512.713,1332.91Zm-3.188-22.77a0.685,0.685,0,0,0,.68-0.69v-2.74a0.68,0.68,0,1,0-1.36,0v2.74A0.685,0.685,0,0,0,509.525,1310.14Zm16.321,12.33h-2.72a0.677,0.677,0,0,0-.68.68,0.685,0.685,0,0,0,.68.69h2.72a0.686,0.686,0,0,0,.681-0.69A0.677,0.677,0,0,0,525.846,1322.47Zm-29.923,0H493.2a0.677,0.677,0,0,0-.68.68,0.685,0.685,0,0,0,.68.69h2.72a0.685,0.685,0,0,0,.68-0.69A0.677,0.677,0,0,0,495.923,1322.47Zm24.662-11.43-1.923,1.94a0.683,0.683,0,1,0,.962.97l1.923-1.94a0.689,0.689,0,0,0,0-.97A0.673,0.673,0,0,0,520.585,1311.04Zm-21.159,21.31-1.924,1.94a0.683,0.683,0,1,0,.962.97l1.923-1.94A0.683,0.683,0,0,0,499.426,1332.35Zm20.2,0a0.683,0.683,0,0,0-.962.97l1.923,1.94a0.683,0.683,0,1,0,.962-0.97Zm-20.2-18.4a0.683,0.683,0,1,0,.961-0.97l-1.923-1.94a0.673,0.673,0,0,0-.962,0,0.689,0.689,0,0,0,0,.97Zm10.1,0.98a8.2,8.2,0,0,0-8.161,8.22,0.68,0.68,0,1,0,1.36,0,6.832,6.832,0,0,1,6.8-6.85A0.685,0.685,0,0,0,509.525,1314.93Z" transform="translate(-446 -1267)"/>
</svg>
