<svg xmlns="http://www.w3.org/2000/svg" width="56" height="60" viewBox="0 0 56 60">
  <defs>
    <style>
      .cls-1 {
        fill: #f9a825;
        fill-rule: evenodd;
      }
    </style>
  </defs>
  <path id="Icon" class="cls-1" d="M1296.15,4066.48a5.176,5.176,0,1,0,5.09,5.17A5.143,5.143,0,0,0,1296.15,4066.48Zm0,8.28a3.105,3.105,0,1,1,3.05-3.11A3.084,3.084,0,0,1,1296.15,4074.76Zm47.85-16.55a4.391,4.391,0,0,0-2.76-4.38,5.239,5.239,0,0,0,1.74-3.9,5.135,5.135,0,0,0-5.09-5.17h-14.63l0.75-3.53a36.211,36.211,0,0,0,.11-11.58c-0.52-3.61-3.67-7.65-7.09-7.65h-0.24c-1.63,0-4.35.94-4.35,7.24,0,8.3-2.04,12.1-3.75,13.82a5.27,5.27,0,0,1-3.38,1.7h-1.02v-2.07H1288V4082h16.29v-2.07h28.51a5.135,5.135,0,0,0,5.09-5.17,5.217,5.217,0,0,0-1.09-3.2A23.445,23.445,0,0,1,1344,4058.21Zm-53.96,21.72v-35.17h12.21v35.17h-12.21Zm48.87-18.62h-11.2a1.035,1.035,0,0,0,0,2.07h8.14a3.105,3.105,0,0,1,0,6.21h-10.18a1.03,1.03,0,0,0,0,2.06h7.13a3.105,3.105,0,0,1,0,6.21h-28.51v-31.03h0.99a6.9,6.9,0,0,0,4.76-2.22c2.94-2.89,4.43-8.07,4.43-15.37,0-1.93.3-5.17,2.32-5.17h0.24c2.27,0,4.69,3.24,5.08,5.89a34.271,34.271,0,0,1-.1,10.84l-1.26,6.03h17.14a3.1,3.1,0,0,1,0,6.2h-10.18a1.035,1.035,0,0,0,0,2.07h7.13a33.751,33.751,0,0,1,3.92.2c2.66,0.4,3.2,1.45,3.2,2.91A3.08,3.08,0,0,1,1338.91,4061.31Z" transform="translate(-1288 -4022)"/>
</svg>
