<svg xmlns="http://www.w3.org/2000/svg" width="56" height="59" viewBox="0 0 56 59">
  <defs>
    <style>
      .cls-1 {
        fill: #212121;
        fill-rule: evenodd;
      }
    </style>
  </defs>
  <path id="Icon" class="cls-1" d="M1386.84,5076.7h-2.53V5040a3.1,3.1,0,0,0-3.1-3.1h-5.67a3.1,3.1,0,0,0-3.1,3.1v36.7H1366v-20.08a3.1,3.1,0,0,0-3.1-3.09h-5.66a3.1,3.1,0,0,0-3.11,3.09v20.08h-6.43v-10.4a3.1,3.1,0,0,0-3.11-3.1h-5.66a3.1,3.1,0,0,0-3.1,3.1v10.4h-2.67a1.15,1.15,0,1,0,0,2.3h53.68A1.15,1.15,0,1,0,1386.84,5076.7Zm-41.45,0h-7.25v-10.4a0.785,0.785,0,0,1,.79-0.79h5.66a0.794,0.794,0,0,1,.8.79v10.4h0Zm18.3,0h-7.25v-20.08a0.8,0.8,0,0,1,.8-0.79h5.66a0.792,0.792,0,0,1,.79.79v20.08Zm18.31,0h-7.25V5040a0.794,0.794,0,0,1,.79-0.8h5.67a0.8,0.8,0,0,1,.79.8v36.7h0Zm2.31-55.49a1.164,1.164,0,0,0-1.21-1.21h-7.05a1.15,1.15,0,0,0,0,2.3h4.32l-11.42,11.4-4.31-4.3a1.147,1.147,0,0,0-1.63,0l-20.77,20.72a1.153,1.153,0,0,0,0,1.63,1.184,1.184,0,0,0,1.64,0l19.95-19.91,4.3,4.3a1.165,1.165,0,0,0,1.64,0l12.23-12.21v3.9a1.155,1.155,0,0,0,2.31,0v-6.62Zm-45.14,32.59a1.15,1.15,0,1,1-1.16,1.15A1.15,1.15,0,0,1,1339.17,5053.8Z" transform="translate(-1332 -5020)"/>
</svg>
