<svg xmlns="http://www.w3.org/2000/svg" width="66" height="60" viewBox="0 0 66 60">
  <defs>
    <style>
      .cls-1 {
        fill: #6a82fb;
        fill-rule: evenodd;
      }
    </style>
  </defs>
  <path id="Icon" class="cls-1" d="M736.069,4070.05l-10.751-4.61a2.232,2.232,0,0,1-.774-0.85h7.177a12.865,12.865,0,0,0,5.457-.73,3.226,3.226,0,0,0,1.368-4.83c-2.052-2.9-6.84-10.47-6.99-18.14,0-.13-0.436-13.18-13.431-13.29a15.779,15.779,0,0,0-5.291.93,9.1,9.1,0,0,0-1.636-2.68c-2.259-2.55-5.925-3.85-10.9-3.85s-8.639,1.3-10.9,3.85a9.725,9.725,0,0,0-2.3,7.12v5.8a4.331,4.331,0,0,0-1.1,2.86V4046a4.323,4.323,0,0,0,1.647,3.39,22.676,22.676,0,0,0,3.853,7.89v3.61a2.893,2.893,0,0,1-1.515,2.54l-9.813,5.3a9.836,9.836,0,0,0-5.172,8.65V4082h66v-4.03A8.8,8.8,0,0,0,736.069,4070.05Zm-12.669,9.77H677.2v-2.44a7.645,7.645,0,0,1,4.025-6.73l9.813-5.31a5.054,5.054,0,0,0,2.662-4.44v-4.39l-0.256-.3a20.537,20.537,0,0,1-3.751-7.71l-0.1-.43-0.376-.24A2.174,2.174,0,0,1,688.2,4046v-4.36a2.125,2.125,0,0,1,.737-1.61l0.363-.33v-6.79l-0.01-.14a7.535,7.535,0,0,1,1.765-5.48c1.823-2.06,4.934-3.11,9.245-3.11,4.3,0,7.4,1.04,9.225,3.09a7.031,7.031,0,0,1,1.591,3.12c0.018,0.08.034,0.16,0.05,0.23s0.032,0.16.044,0.23,0.026,0.17.038,0.25c0.009,0.05.018,0.11,0.024,0.17q0.025,0.2.039,0.39a0.134,0.134,0,0,1,0,.02c0.008,0.12.013,0.23,0.017,0.33,0,0.02,0,.04,0,0.06,0,0.09,0,.18,0,0.25v0.04c0,0.25-.022.4-0.022,0.41l-0.009,6.93,0.363,0.33a2.125,2.125,0,0,1,.737,1.61V4046a2.176,2.176,0,0,1-1.564,2.07l-0.548.17-0.176.54a22.823,22.823,0,0,1-3.117,6.23,14.268,14.268,0,0,1-.921,1.18l-0.274.31v4.5a5.151,5.151,0,0,0,.07.81c0.009,0.06.025,0.11,0.036,0.17a4.939,4.939,0,0,0,.17.64c0.017,0.05.034,0.1,0.053,0.15a6.441,6.441,0,0,0,.3.66c0.014,0.02.026,0.05,0.039,0.07a5.2,5.2,0,0,0,.554.79l0.251,0.3h0.043a5.258,5.258,0,0,0,1.3.94l10.509,5.21a7.6,7.6,0,0,1,4.27,6.85v2.23Zm15.4,0H725.6v-2.23a9.77,9.77,0,0,0-5.485-8.8l-7.543-3.74a1.894,1.894,0,0,0-1.746-2.64h-2.439a2.548,2.548,0,0,1-.124-0.28,2.635,2.635,0,0,1-.156-0.38A2.779,2.779,0,0,1,708,4061v-3.69c0.252-.31.517-0.65,0.791-1.04a24.786,24.786,0,0,0,3.249-6.33,4.311,4.311,0,0,0,2.56-3.94v-4.36a4.337,4.337,0,0,0-1.1-2.87v-5.8a9.494,9.494,0,0,0-.092-2.33,13.209,13.209,0,0,1,4.718-.86c10.826,0.09,11.221,10.71,11.231,11.16,0.162,8.27,5.221,16.28,7.389,19.34a1.046,1.046,0,0,1,.153.9,1,1,0,0,1-.588.67,10.8,10.8,0,0,1-4.484.56h-7.571a2.019,2.019,0,0,0-1.725.96,1.965,1.965,0,0,0-.095,1.94,4.541,4.541,0,0,0,1.953,2.1l10.722,4.61a6.617,6.617,0,0,1,3.689,5.95v1.85Z" transform="translate(-675 -4022)"/>
</svg>
