<svg xmlns="http://www.w3.org/2000/svg" width="70" height="60" viewBox="0 0 70 60">
  <defs>
    <style>
      .cls-1 {
        fill: #f45551;
        fill-rule: evenodd;
      }
    </style>
  </defs>
  <path id="Icon" class="cls-1" d="M441.488,4032.59h-2.321v-3.53H427.5v3.53h-4.667v-6.82a3.758,3.758,0,0,0-3.74-3.77H400.907a3.758,3.758,0,0,0-3.74,3.77v6.82H392.5v-3.53H380.833v3.53h-2.321a3.532,3.532,0,0,0-3.512,3.54v42.33a3.532,3.532,0,0,0,3.512,3.54h62.976a3.532,3.532,0,0,0,3.512-3.54v-42.33A3.532,3.532,0,0,0,441.488,4032.59Zm-11.655-1.18h7v1.18h-7v-1.18Zm-30.333-5.64a1.417,1.417,0,0,1,1.407-1.42h18.186a1.417,1.417,0,0,1,1.407,1.42v6.82h-21v-6.82Zm-2.333,9.17h36.166v44.71H386.667v-44.71h10.5Zm-14-3.53h7v1.18h-7v-1.18Zm-5.834,47.05v-42.33a1.183,1.183,0,0,1,1.179-1.19h5.821v44.71h-5.821A1.19,1.19,0,0,1,377.333,4078.46Zm65.334,0a1.19,1.19,0,0,1-1.179,1.19h-5.821v-44.71h5.821a1.183,1.183,0,0,1,1.179,1.19v42.33Z" transform="translate(-375 -4022)"/>
</svg>
