<svg id="Groupe_4" data-name="Groupe 4" xmlns="http://www.w3.org/2000/svg" xmlns:xlink="http://www.w3.org/1999/xlink" width="132" height="126" viewBox="0 0 132 126">
  <defs>
    <style>
      .cls-1 {
        fill: #fff;
        filter: url(#filter);
      }

      .cls-1, .cls-2 {
        fill-rule: evenodd;
      }

      .cls-2 {
        fill: #f9a825;
      }
    </style>
    <filter id="filter" x="1346" y="1267" width="132" height="126" filterUnits="userSpaceOnUse">
      <feOffset result="offset" dx="1.628" dy="4.728" in="SourceAlpha"/>
      <feGaussianBlur result="blur" stdDeviation="5.196"/>
      <feFlood result="flood" flood-opacity="0.3"/>
      <feComposite result="composite" operator="in" in2="blur"/>
      <feBlend result="blend" in="SourceGraphic"/>
    </filter>
  </defs>
  <path id="Icon_Bg" class="cls-1" d="M1384.01,1351.15q-5.085-9.105-10.47-18.02-5.4-8.925-.08-17.89t10.31-18.12q5.01-9.15,15.4-9.01t20.79-.1q10.395-.225,15.48,8.88,5.07,9.1,10.47,18.02t0.08,17.89q-5.31,8.97-10.31,18.12t-15.4,9.01q-10.4-.12-20.79.1T1384.01,1351.15Z" transform="translate(-1346 -1267)"/>
  <path id="Icon" class="cls-2" d="M1424.66,1306.03a4.037,4.037,0,0,0-4.03,4.03,4,4,0,0,0,.49,1.92l-6.6,6.61a5.354,5.354,0,0,0-6.58,0l-5.15-5.15a2.623,2.623,0,0,0,.38-1.36,2.685,2.685,0,1,0-2.68,2.69,2.713,2.713,0,0,0,1.35-.38l5.15,5.15a5.369,5.369,0,0,0,0,6.59l-8.5,8.52a4,4,0,1,0,.84,1.06l8.61-8.63a5.289,5.289,0,0,0,2.62,1.09v6.84a4.03,4.03,0,1,0,1.34,0v-6.84a5.289,5.289,0,0,0,2.62-1.09l5.15,5.16a2.623,2.623,0,0,0-.38,1.36,2.685,2.685,0,1,0,2.68-2.69,2.615,2.615,0,0,0-1.35.38l-5.15-5.16a5.354,5.354,0,0,0,0-6.58l6.49-6.5a3.991,3.991,0,0,0,2.7,1.05A4.035,4.035,0,0,0,1424.66,1306.03Zm-25.52,6.05a1.345,1.345,0,1,1,2.69,0A1.345,1.345,0,0,1,1399.14,1312.08Zm-3.35,28.25a2.69,2.69,0,1,1,2.68-2.69A2.7,2.7,0,0,1,1395.79,1340.33Zm18.13-1.35a2.69,2.69,0,1,1-2.69-2.69A2.7,2.7,0,0,1,1413.92,1338.98Zm-2.69-12.11a4.035,4.035,0,1,1,4.03-4.03A4.037,4.037,0,0,1,1411.23,1326.87Zm12.08,6.73a1.34,1.34,0,1,1-1.34-1.34A1.349,1.349,0,0,1,1423.31,1333.6Zm1.35-20.85a2.69,2.69,0,1,1,2.68-2.69A2.7,2.7,0,0,1,1424.66,1312.75Z" transform="translate(-1346 -1267)"/>
</svg>
