<svg xmlns="http://www.w3.org/2000/svg" width="59" height="59" viewBox="0 0 59 59">
  <defs>
    <style>
      .cls-1 {
        fill: #fff;
        fill-rule: evenodd;
      }
    </style>
  </defs>
  <path id="Icon" class="cls-1" d="M989.706,5045.58l-10.181-11.37a1.168,1.168,0,0,0-.875-0.39h-36.3a1.164,1.164,0,0,0-.874.39l-10.182,11.37a1.13,1.13,0,0,0-.189,1.23,1.142,1.142,0,0,0,.3.4s0,0.01.006,0.01l28.214,31.39a1.173,1.173,0,0,0,1.747,0l28.214-31.39s0,0,.007-0.01a1.142,1.142,0,0,0,.3-0.4A1.13,1.13,0,0,0,989.706,5045.58Zm-13.127-9.46-5.189,8.26-8.315-8.26h13.5Zm-7.666,9.07H952.087l8.413-8.35Zm-10.988-9.07-8.315,8.26-5.189-8.26h13.5Zm-15.756.79,5.2,8.28H934.759Zm-7.39,10.58h13.8l9.532,25.96Zm28.155,25.91,6.66-17.79a1.151,1.151,0,0,0-.691-1.48,1.173,1.173,0,0,0-1.5.69l-6.893,18.41-9.45-25.74h35.16Zm10.7-28.21,5.2-8.28,7.41,8.28H973.63ZM960.5,5020a1.162,1.162,0,0,0-1.168,1.15v5.94a1.168,1.168,0,0,0,2.336,0v-5.94A1.162,1.162,0,0,0,960.5,5020Zm10.632,4.55a1.178,1.178,0,0,0-1.651,0l-4.253,4.2a1.142,1.142,0,0,0,0,1.63,1.172,1.172,0,0,0,1.651,0l4.253-4.2A1.142,1.142,0,0,0,971.132,5024.55Zm-15.588,4.2-4.252-4.2a1.18,1.18,0,0,0-1.652,0,1.142,1.142,0,0,0,0,1.63l4.253,4.2a1.172,1.172,0,0,0,1.651,0A1.142,1.142,0,0,0,955.544,5028.75Zm14.464,21.02a1.155,1.155,0,1,1-1.168,1.15A1.162,1.162,0,0,1,970.008,5049.77Z" transform="translate(-931 -5020)"/>
</svg>
