<svg id="Groupe_3" data-name="Groupe 3" xmlns="http://www.w3.org/2000/svg" xmlns:xlink="http://www.w3.org/1999/xlink" width="132" height="126" viewBox="0 0 132 126">
  <defs>
    <style>
      .cls-1 {
        fill: #fff;
        filter: url(#filter);
      }

      .cls-1, .cls-2 {
        fill-rule: evenodd;
      }

      .cls-2 {
        fill: #8bc34a;
      }
    </style>
    <filter id="filter" x="1044" y="1267" width="132" height="126" filterUnits="userSpaceOnUse">
      <feOffset result="offset" dx="1.628" dy="4.728" in="SourceAlpha"/>
      <feGaussianBlur result="blur" stdDeviation="5.196"/>
      <feFlood result="flood" flood-opacity="0.3"/>
      <feComposite result="composite" operator="in" in2="blur"/>
      <feBlend result="blend" in="SourceGraphic"/>
    </filter>
  </defs>
  <path id="Icon_Bg" class="cls-1" d="M1081.44,1351.15q-5.1-9.105-10.52-18.02t-0.08-17.89q5.34-8.97,10.36-18.12t15.45-9.01q10.44,0.135,20.87-.1t15.54,8.88q5.1,9.1,10.51,18.02t0.08,17.89q-5.325,8.97-10.35,18.12t-15.46,9.01q-10.425-.12-20.87.1Q1086.545,1360.255,1081.44,1351.15Z" transform="translate(-1044 -1267)"/>
  <path id="Icon" class="cls-2" d="M1109.54,1320.03h0l-20.33,20.21,2.79,2.77,26.51-26.36-2.79-2.77ZM1092,1341.16l-0.93-.92,18.93-18.82,0.93,0.92Zm19.86-19.74-0.93-.93,4.79-4.76,0.93,0.92Zm3.91-9.51a0.657,0.657,0,0,0,.66-0.65v-4.58a0.66,0.66,0,0,0-1.32,0v4.58A0.657,0.657,0,0,0,1115.77,1311.91Zm0,9.15a0.657,0.657,0,0,0-.66.65v4.57a0.66,0.66,0,1,0,1.32,0v-4.57A0.657,0.657,0,0,0,1115.77,1321.06Zm9.86-5.23h-4.6a0.657,0.657,0,0,0-.66.65,0.666,0.666,0,0,0,.66.66h4.6a0.666,0.666,0,0,0,.66-0.66A0.657,0.657,0,0,0,1125.63,1315.83Zm-19.72,1.31h4.6a0.659,0.659,0,0,0,.66-0.66,0.651,0.651,0,0,0-.66-0.65h-4.6a0.649,0.649,0,0,0-.65.65A0.657,0.657,0,0,0,1105.91,1317.14Zm13.81-3.92a0.7,0.7,0,0,0,.46-0.19l3.25-3.24a0.64,0.64,0,0,0,0-.92,0.652,0.652,0,0,0-.93,0l-3.25,3.23a0.652,0.652,0,0,0,0,.93A0.7,0.7,0,0,0,1119.72,1313.22Zm0.46,6.72a0.67,0.67,0,0,0-.93,0,0.652,0.652,0,0,0,0,.93l3.25,3.23a0.657,0.657,0,0,0,.47.19,0.619,0.619,0,0,0,.46-0.19,0.64,0.64,0,0,0,0-.92Zm-8.82-6.91a0.7,0.7,0,0,0,.47.19,0.678,0.678,0,0,0,.46-0.19,0.652,0.652,0,0,0,0-.93l-3.25-3.23a0.652,0.652,0,0,0-.93,0,0.64,0.64,0,0,0,0,.92Z" transform="translate(-1044 -1267)"/>
</svg>
